# xmcd
#
# Track frame offsets: 
#        150
#        14836
#        26359
#        37358
#        51964
#        65764
#        77888
#        92292
#        106227
#        119275
#        133162
#        147386
#        158890
#        172295
#        187099
#        200816
#        211822
#        225455
#        237540
#        252125
#        265384
#        278942
#        293826
#        308590
#        323007
#
# Disc length: 4493 seconds
#
# Revision: 2
# Processed by: cddbd v1.5.2PL0 Copyright (c) Steve Scherf et al.
# Submitted via: ExactAudioCopy v1.0b3
#
DISCID=80118b19
DTITLE=Ella Fitzgerald - Golden Greats disc 3
DYEAR=1999
DGENRE=Jazz
TTITLE0=How High The Moon
TTITLE1=I've Got A Feeling I'm Falling
TTITLE2=That Old Feeling
TTITLE3=Oh, Lady Be Good
TTITLE4=Black Coffee
TTITLE5=Baby It's Cold Outside
TTITLE6=Guilty
TTITLE7=Smooth Sailing
TTITLE8=I'm Gonna Wash That Man Right Outa My Hair
TTITLE9=Lover's Gold
TTITLE10=Crying
TTITLE11=Robbin's Nest
TTITLE12=No Sense
TTITLE13=Mixed Emotions
TTITLE14=I Hadn't Anyone 'Til You
TTITLE15=Happy Talk
TTITLE16=Dream A Little Dream Of Me
TTITLE17=My Baby
TTITLE18=A Sunday Kind Of Love
TTITLE19=You Turned The Tables On Me
TTITLE20=Dream A Little Longer
TTITLE21=Don'cha Go 'Way Mad
TTITLE22=Sentimental Journey
TTITLE23=A Man Wrote A Song
TTITLE24=Basin Street Blues
EXTD=
EXTT0=
EXTT1=
EXTT2=
EXTT3=
EXTT4=
EXTT5=
EXTT6=
EXTT7=
EXTT8=
EXTT9=
EXTT10=
EXTT11=
EXTT12=
EXTT13=
EXTT14=
EXTT15=
EXTT16=
EXTT17=
EXTT18=
EXTT19=
EXTT20=
EXTT21=
EXTT22=
EXTT23=
EXTT24=
PLAYORDER=
